<svg version="1.1" id="Layer_1" xmlns="http://www.w3.org/2000/svg" xmlns:xlink="http://www.w3.org/1999/xlink" x="0px" y="0px"
	 width="100%" viewBox="0 0 354 142" enable-background="new 0 0 354 142" xml:space="preserve">
<path fill="#ED1F26" opacity="1.000000" stroke="none" 
	d="
M276.000000,143.000000 
	C184.000015,143.000000 92.500023,143.000000 1.000025,143.000000 
	C1.000016,95.666687 1.000016,48.333366 1.000008,1.000037 
	C118.999969,1.000025 236.999939,1.000025 354.999939,1.000012 
	C354.999939,48.333298 354.999939,95.666595 354.999969,142.999939 
	C328.833344,143.000000 302.666656,143.000000 276.000000,143.000000 
M304.585205,132.318085 
	C305.201996,132.531265 305.817963,132.927780 306.435669,132.930450 
	C317.899780,132.980225 329.364288,133.013229 340.828064,132.945206 
	C341.875305,132.938995 342.918335,132.222397 343.984741,130.919342 
	C343.977142,124.001671 343.969543,117.084000 343.380554,109.570122 
	C339.924255,109.378593 336.433807,108.793434 333.019775,109.089447 
	C328.117645,109.514481 326.869385,107.646172 326.903656,102.897629 
	C327.107635,74.638542 327.031677,46.377144 326.946625,18.116840 
	C326.940521,16.100590 326.111450,14.086817 324.775116,12.174589 
	C317.976776,12.141690 311.178406,12.108792 303.747681,12.627988 
	C303.497406,13.901812 303.029785,15.175405 303.028442,16.449492 
	C302.989136,53.439941 302.981018,90.430473 303.050568,127.420837 
	C303.053436,128.959869 303.852234,130.497406 303.973053,132.041214 
	C303.973053,132.041214 303.962189,131.734177 304.585205,132.318085 
M299.369507,11.491298 
	C298.731049,11.335706 298.092865,11.045311 297.454132,11.044156 
	C279.521027,11.011717 261.587799,10.985314 243.654953,11.052352 
	C242.450775,11.056853 241.249405,11.804110 239.942245,12.991312 
	C236.751953,35.237110 233.561646,57.482914 230.371353,79.728714 
	C229.996017,79.685783 229.620682,79.642853 229.245361,79.599922 
	C226.178040,57.173199 223.110733,34.746475 220.062180,12.456974 
	C212.333740,12.456974 205.387802,12.456974 198.195648,12.456974 
	C198.834824,18.358530 199.444244,23.985466 200.103424,30.071781 
	C189.498581,17.135445 188.452454,16.428972 173.647202,11.799976 
	C173.093567,11.882935 172.539917,11.965893 171.330658,12.242155 
	C170.887222,12.161798 170.443771,12.081442 169.364441,11.465057 
	C162.232803,11.667884 155.101181,11.870709 147.780823,12.444009 
	C147.625031,12.687136 147.411194,12.857347 146.883865,13.188972 
	C146.818558,13.281622 146.677429,13.410075 146.701309,13.460613 
	C146.795471,13.659984 146.941437,13.834897 147.302353,14.928451 
	C147.315872,22.391703 147.366150,29.855104 147.335831,37.318176 
	C147.253677,57.543430 147.137283,77.768547 146.276154,97.982483 
	C145.771393,98.010666 145.266632,98.038841 144.283981,97.440674 
	C141.402969,78.100975 138.580475,58.752296 135.615326,39.425507 
	C134.212830,30.284039 132.537292,21.184464 130.372711,11.501959 
	C123.293091,11.333264 116.213684,11.070460 109.133728,11.055196 
	C107.100517,11.050813 105.065758,11.761156 102.836945,12.906836 
	C102.574379,14.206321 102.257011,15.497447 102.057312,16.806522 
	C97.871460,44.245438 93.698921,71.686386 88.569458,99.060097 
	C87.932510,99.026962 87.295563,98.993828 86.374001,98.065254 
	C86.353912,94.403358 86.325241,90.741493 86.315132,87.079575 
	C86.246231,62.113270 86.181236,37.146957 85.482117,11.598284 
	C76.989410,11.728167 68.496696,11.858049 59.351044,12.375662 
	C59.007061,13.298743 58.498077,14.195129 58.343773,15.148898 
	C55.884895,30.347225 53.501099,45.557800 50.992229,60.747753 
	C50.787106,61.989666 49.799828,63.102390 49.175983,64.275146 
	C48.434189,63.039997 47.290474,61.885269 47.024281,60.554955 
	C46.147594,56.173645 45.632603,51.721447 44.899197,47.309696 
	C42.947544,35.569626 40.954372,23.836456 38.377079,11.522940 
	C31.291035,11.347313 24.205318,11.086030 17.118702,11.058739 
	C15.432838,11.052246 13.743960,11.828560 12.046011,13.151464 
	C12.046011,52.954502 12.046011,92.757538 12.046011,132.886017 
	C17.100275,132.886017 21.570827,133.101929 26.007053,132.805008 
	C28.666910,132.626968 31.273140,131.647690 34.153996,130.797287 
	C34.214146,130.703140 34.347271,130.571274 34.321548,130.521530 
	C34.221531,130.328156 34.071087,130.160843 33.709095,129.073105 
	C33.784729,116.719261 33.860363,104.365425 34.668564,92.030449 
	C35.156525,92.007851 35.644482,91.985260 36.596268,92.591415 
	C38.897209,105.961418 41.198151,119.331421 43.477753,132.577438 
	C54.119095,133.463333 54.555935,133.112747 56.172115,123.720581 
	C57.887478,113.752022 59.679474,103.796654 62.138023,94.376328 
	C62.421589,96.132439 62.933231,97.886337 62.950214,99.645027 
	C63.034863,108.412216 62.927082,117.181503 63.043659,125.947960 
	C63.066410,127.658829 63.782631,129.360458 64.529533,131.291473 
	C64.725700,131.492737 64.880173,131.722092 65.625839,132.521942 
	C78.516861,132.640549 91.407822,132.771393 104.299118,132.836197 
	C104.858284,132.839020 105.420494,132.234314 106.162193,131.134277 
	C106.884514,126.442024 107.606834,121.749771 108.997986,116.753891 
	C114.207359,113.003532 120.046982,115.475502 125.880074,115.900833 
	C126.601532,121.202820 127.322990,126.504807 128.619965,132.410416 
	C141.319962,132.540573 154.019928,132.678070 166.720200,132.768677 
	C167.140076,132.771667 167.563354,132.298782 168.687607,131.538055 
	C168.687607,119.096672 168.687607,106.655289 168.687607,94.565102 
	C173.282440,92.727959 174.635956,94.444847 175.529739,98.101646 
	C178.357910,109.672646 181.544418,121.156059 184.669312,132.964218 
	C191.644501,132.209808 198.580078,134.329193 205.519440,131.292725 
	C201.310135,117.076958 197.242737,103.245163 193.099838,89.436020 
	C192.347534,86.928436 192.301605,85.140213 194.545700,82.977966 
	C199.647476,78.062279 203.243683,72.114243 204.041641,64.803688 
	C204.110809,64.169945 204.881317,63.612755 205.575897,62.686985 
	C207.329529,72.589645 209.072662,81.935333 210.624130,91.312737 
	C212.847153,104.749367 214.930267,118.209145 217.631622,132.282761 
	C225.055557,132.518967 232.478653,132.810318 239.904465,132.926010 
	C240.903809,132.941559 241.916931,132.072357 242.888947,130.805679 
	C247.348602,102.799438 251.808243,74.793198 257.357239,46.893452 
	C258.085693,46.935719 258.814178,46.977985 259.755219,47.933887 
	C259.768494,51.578888 259.783661,55.223885 259.794769,58.868889 
	C259.868958,83.220833 259.942261,107.572784 260.626190,132.491913 
	C273.390900,132.632706 286.155548,132.793930 298.920624,132.856232 
	C299.586548,132.859482 300.256592,132.020599 300.754395,130.704300 
	C300.754395,123.997665 300.754395,117.291031 300.754395,109.906448 
	C294.100189,109.906448 288.050751,109.906448 281.829956,109.553238 
	C281.691254,109.324150 281.506317,109.142067 281.153900,108.076012 
	C281.194916,100.058517 281.235931,92.041023 281.682892,84.018791 
	C281.682892,84.018791 282.084900,83.962013 283.010223,83.967499 
	C287.670074,83.970718 292.343719,84.172325 296.980896,83.849701 
	C298.280243,83.759300 300.499664,82.175194 300.547333,81.191475 
	C300.866730,74.600372 300.713409,67.986351 300.713409,61.014530 
	C293.887726,61.014530 287.609283,61.014530 281.349213,61.014530 
	C281.349213,52.497849 281.349213,44.360348 281.927185,35.916374 
	C282.279694,35.386745 282.632233,34.857117 283.906219,34.141830 
	C289.339783,34.141830 294.773376,34.141830 301.061737,34.141830 
	C300.687012,26.423071 300.338074,19.235003 299.369507,11.491298 
z"/>
<path fill="#FFFCFC" opacity="1.000000" stroke="none" 
	d="
M260.015839,131.924728 
	C259.942261,107.572784 259.868958,83.220833 259.794769,58.868889 
	C259.783661,55.223885 259.768494,51.578888 259.738342,47.038017 
	C259.664093,42.105289 259.606720,38.068432 259.660645,33.652214 
	C259.771973,31.776632 259.771973,30.280407 259.771973,28.784182 
	C259.365662,28.762115 258.959351,28.740049 258.553040,28.717983 
	C258.431091,30.483391 258.309113,32.248802 258.079010,34.426414 
	C257.403198,38.821396 256.835541,42.804176 256.267883,46.786957 
	C251.808243,74.793198 247.348602,102.799438 242.451996,131.310959 
	C233.701080,131.763840 225.387100,131.711441 217.073120,131.659042 
	C214.930267,118.209145 212.847153,104.749367 210.624130,91.312737 
	C209.072662,81.935333 207.329529,72.589645 205.575897,62.686985 
	C204.881317,63.612755 204.110809,64.169945 204.041641,64.803688 
	C203.243683,72.114243 199.647476,78.062279 194.545700,82.977966 
	C192.301605,85.140213 192.347534,86.928436 193.099838,89.436020 
	C197.242737,103.245163 201.310135,117.076958 205.519440,131.292725 
	C198.580078,134.329193 191.644501,132.209808 184.669312,132.964218 
	C181.544418,121.156059 178.357910,109.672646 175.529739,98.101646 
	C174.635956,94.444847 173.282440,92.727959 168.687607,94.565102 
	C168.687607,106.655289 168.687607,119.096672 167.871948,131.733337 
	C154.052353,131.888000 141.048401,131.847397 128.044449,131.806793 
	C127.322990,126.504807 126.601532,121.202820 125.706146,115.105415 
	C121.004990,113.958015 116.472488,113.661697 111.952400,113.234230 
	C109.000175,112.955025 108.045868,114.370644 108.329163,117.057518 
	C107.606834,121.749771 106.884514,126.442024 105.604294,131.525574 
	C91.695236,131.937744 78.344086,131.958649 64.992935,131.979538 
	C64.880173,131.722092 64.725700,131.492737 64.429001,130.710602 
	C64.328476,112.921898 64.328476,95.714081 64.328476,78.506271 
	C64.227745,78.477592 64.127014,78.448921 64.026283,78.420242 
	C63.163521,83.558670 62.300762,88.697098 61.438004,93.835526 
	C59.679474,103.796654 57.887478,113.752022 56.172115,123.720581 
	C54.555935,133.112747 54.119095,133.463333 43.477753,132.577438 
	C41.198151,119.331421 38.897209,105.961418 36.391296,91.855621 
	C35.674877,87.982857 35.163433,84.845901 34.651985,81.708939 
	C34.413322,81.752289 34.174660,81.795647 33.935997,81.838997 
	C33.935997,85.229858 33.935997,88.620720 33.935997,92.011581 
	C33.860363,104.365425 33.784729,116.719261 33.753452,129.787521 
	C33.833027,130.677460 33.868248,130.852997 33.903473,131.028534 
	C31.273140,131.647690 28.666910,132.626968 26.007053,132.805008 
	C21.570827,133.101929 17.100275,132.886017 12.046011,132.886017 
	C12.046011,92.757538 12.046011,52.954502 12.514624,12.657320 
	C21.648060,12.142299 30.312883,12.121421 38.977707,12.100543 
	C40.954372,23.836456 42.947544,35.569626 44.899197,47.309696 
	C45.632603,51.721447 46.147594,56.173645 47.024281,60.554955 
	C47.290474,61.885269 48.434189,63.039997 49.175980,64.275146 
	C49.799828,63.102390 50.787106,61.989666 50.992229,60.747753 
	C53.501099,45.557800 55.884895,30.347225 58.343773,15.148898 
	C58.498077,14.195129 59.007061,13.298743 60.140625,12.257144 
	C69.325127,12.152635 77.720047,12.166643 86.114975,12.180651 
	C86.181236,37.146957 86.246231,62.113270 86.315132,87.079575 
	C86.325241,90.741493 86.353912,94.403358 86.397972,98.946564 
	C86.496429,103.533745 86.570915,107.239609 86.501656,111.321609 
	C86.357910,113.305923 86.357910,114.914108 86.357910,116.522301 
	C86.489891,116.533882 86.621864,116.545464 86.753845,116.557045 
	C87.113792,114.699333 87.473747,112.841614 87.932030,110.552277 
	C88.528152,106.456070 89.025955,102.791504 89.523758,99.126930 
	C93.698921,71.686386 97.871460,44.245438 102.057312,16.806522 
	C102.257011,15.497447 102.574379,14.206321 103.400909,12.520563 
	C112.971725,12.111498 121.978584,12.088704 130.985443,12.065910 
	C132.537292,21.184464 134.212830,30.284039 135.615326,39.425507 
	C138.580475,58.752296 141.402969,78.100975 144.500366,98.185379 
	C145.184967,102.218773 145.653214,105.507469 146.121445,108.796165 
	C146.425797,108.758888 146.730133,108.721619 147.034485,108.684341 
	C147.034485,105.120804 147.034485,101.557259 147.034485,97.993721 
	C147.137283,77.768547 147.253677,57.543430 147.335831,37.318176 
	C147.366150,29.855104 147.315872,22.391703 147.259567,14.211384 
	C147.190964,13.314425 147.165146,13.134533 147.139328,12.954640 
	C147.411194,12.857347 147.625031,12.687136 148.344727,12.293429 
	C155.939209,12.095595 162.969772,12.048341 170.000336,12.001086 
	C170.443771,12.081442 170.887222,12.161798 171.975983,12.251761 
	C173.063995,12.245662 173.506699,12.229956 173.949402,12.214249 
	C188.452454,16.428972 189.498581,17.135445 200.103424,30.071781 
	C199.444244,23.985466 198.834824,18.358530 198.195648,12.456974 
	C205.387802,12.456974 212.333740,12.456974 220.062180,12.456974 
	C223.110733,34.746475 226.178040,57.173199 229.245361,79.599922 
	C229.620682,79.642853 229.996017,79.685783 230.371353,79.728714 
	C233.561646,57.482914 236.751953,35.237110 240.459564,12.574761 
	C260.647644,12.121119 280.318390,12.084027 299.989136,12.046936 
	C300.338074,19.235003 300.687012,26.423071 301.061737,34.141830 
	C294.773376,34.141830 289.339783,34.141830 283.167358,34.165924 
	C282.068756,34.867630 281.708984,35.545235 281.349213,36.222847 
	C281.349213,44.360348 281.349213,52.497849 281.349213,61.014530 
	C287.609283,61.014530 293.887726,61.014530 300.713409,61.014530 
	C300.713409,67.986351 300.866730,74.600372 300.547333,81.191475 
	C300.499664,82.175194 298.280243,83.759300 296.980896,83.849701 
	C292.343719,84.172325 287.670074,83.970718 282.459930,83.722076 
	C281.698730,83.658951 281.487854,83.841240 281.276947,84.023529 
	C281.235931,92.041023 281.194916,100.058517 281.151550,108.797485 
	C281.433258,109.648117 281.717285,109.777283 282.001343,109.906448 
	C288.050751,109.906448 294.100189,109.906448 300.754395,109.906448 
	C300.754395,117.291031 300.754395,123.997665 300.386353,131.248291 
	C286.684174,131.836411 273.350006,131.880569 260.015839,131.924728 
M168.978210,47.519588 
	C168.978210,55.606659 168.978210,63.693729 168.978210,71.694702 
	C169.816589,71.828964 170.156891,71.972473 170.463089,71.919373 
	C176.834503,70.814529 181.252853,66.112617 182.770065,57.722351 
	C184.244843,49.566723 183.584320,41.487350 176.070694,35.953053 
	C174.558243,34.839031 172.335220,34.689728 170.439804,34.095634 
	C169.952606,36.078682 169.264160,38.038635 169.033218,40.051090 
	C168.788391,42.184666 168.978210,44.368122 168.978210,47.519588 
M115.907349,60.381622 
	C114.580994,70.036232 113.328056,79.701797 111.891365,89.339958 
	C111.333328,93.083588 112.598091,94.409882 116.407738,94.368637 
	C123.343506,94.293564 123.452988,94.342941 122.403252,87.417122 
	C122.229248,86.269096 122.166832,85.104614 122.027977,83.950729 
	C120.870323,74.331017 119.706848,64.712021 118.545128,55.092808 
	C118.133545,55.039120 117.721962,54.985428 117.310379,54.931740 
	C116.857918,56.474792 116.405457,58.017849 115.907349,60.381622 
z"/>
<path fill="#FFFAFA" opacity="1.000000" stroke="none" 
	d="
M343.961914,110.166328 
	C343.969543,117.084000 343.977142,124.001671 343.509033,131.414871 
	C330.009613,131.851654 316.985901,131.792923 303.962189,131.734192 
	C303.962189,131.734177 303.973053,132.041214 304.077789,131.560699 
	C304.161194,97.713753 304.125977,64.347313 304.130951,30.980869 
	C304.131897,24.679199 304.292908,18.377552 304.380066,12.075894 
	C311.178406,12.108792 317.976776,12.141690 325.303467,12.580755 
	C325.831818,45.284035 325.831818,77.581146 325.831818,110.166328 
	C332.373688,110.166328 338.167786,110.166328 343.961914,110.166328 
z"/>
<path fill="#EC0000" opacity="1.000000" stroke="none" 
	d="
M304.063873,12.351941 
	C304.292908,18.377552 304.131897,24.679199 304.130951,30.980869 
	C304.125977,64.347313 304.161194,97.713753 304.231384,131.557922 
	C303.852234,130.497406 303.053436,128.959869 303.050568,127.420837 
	C302.981018,90.430473 302.989136,53.439941 303.028442,16.449492 
	C303.029785,15.175405 303.497406,13.901812 304.063873,12.351941 
z"/>
<path fill="#EC0000" opacity="1.000000" stroke="none" 
	d="
M343.671234,109.868225 
	C338.167786,110.166328 332.373688,110.166328 325.831818,110.166328 
	C325.831818,77.581146 325.831818,45.284035 325.748413,12.529406 
	C326.111450,14.086817 326.940521,16.100590 326.946625,18.116840 
	C327.031677,46.377144 327.107635,74.638542 326.903656,102.897629 
	C326.869385,107.646172 328.117645,109.514481 333.019775,109.089447 
	C336.433807,108.793434 339.924255,109.378593 343.671234,109.868225 
z"/>
<path fill="#EC0614" opacity="1.000000" stroke="none" 
	d="
M61.788013,94.105927 
	C62.300762,88.697098 63.163521,83.558670 64.026283,78.420242 
	C64.127014,78.448921 64.227745,78.477592 64.328476,78.506271 
	C64.328476,95.714081 64.328476,112.921898 64.253738,130.598038 
	C63.782631,129.360458 63.066410,127.658829 63.043659,125.947960 
	C62.927082,117.181503 63.034863,108.412216 62.950214,99.645027 
	C62.933231,97.886337 62.421589,96.132439 61.788013,94.105927 
z"/>
<path fill="#EC0000" opacity="1.000000" stroke="none" 
	d="
M299.679321,11.769117 
	C280.318390,12.084027 260.647644,12.121119 240.511810,12.182060 
	C241.249405,11.804110 242.450775,11.056853 243.654953,11.052352 
	C261.587799,10.985314 279.521027,11.011717 297.454132,11.044156 
	C298.092865,11.045311 298.731049,11.335706 299.679321,11.769117 
z"/>
<path fill="#EC0000" opacity="1.000000" stroke="none" 
	d="
M260.321014,132.208313 
	C273.350006,131.880569 286.684174,131.836411 300.471558,131.683014 
	C300.256592,132.020599 299.586548,132.859482 298.920624,132.856232 
	C286.155548,132.793930 273.390900,132.632706 260.321014,132.208313 
z"/>
<path fill="#EC0000" opacity="1.000000" stroke="none" 
	d="
M65.309387,132.250732 
	C78.344086,131.958649 91.695236,131.937744 105.513840,131.914734 
	C105.420494,132.234314 104.858284,132.839020 104.299118,132.836197 
	C91.407822,132.771393 78.516861,132.640549 65.309387,132.250732 
z"/>
<path fill="#EC0000" opacity="1.000000" stroke="none" 
	d="
M304.273682,132.026138 
	C316.985901,131.792923 330.009613,131.851654 343.498322,131.873047 
	C342.918335,132.222397 341.875305,132.938995 340.828064,132.945206 
	C329.364288,133.013229 317.899780,132.980225 306.435669,132.930450 
	C305.817963,132.927780 305.201996,132.531265 304.273682,132.026138 
z"/>
<path fill="#EC0000" opacity="1.000000" stroke="none" 
	d="
M128.332214,132.108612 
	C141.048401,131.847397 154.052353,131.888000 167.520676,131.988159 
	C167.563354,132.298782 167.140076,132.771667 166.720200,132.768677 
	C154.019928,132.678070 141.319962,132.540573 128.332214,132.108612 
z"/>
<path fill="#F04147" opacity="1.000000" stroke="none" 
	d="
M108.663574,116.905701 
	C108.045868,114.370644 109.000175,112.955025 111.952400,113.234230 
	C116.472488,113.661697 121.004990,113.958015 125.563828,114.691376 
	C120.046982,115.475502 114.207359,113.003532 108.663574,116.905701 
z"/>
<path fill="#EC0000" opacity="1.000000" stroke="none" 
	d="
M130.679077,11.783934 
	C121.978584,12.088704 112.971725,12.111498 103.498291,12.139044 
	C105.065758,11.761156 107.100517,11.050813 109.133728,11.055196 
	C116.213684,11.070460 123.293091,11.333264 130.679077,11.783934 
z"/>
<path fill="#EC0000" opacity="1.000000" stroke="none" 
	d="
M38.677391,11.811741 
	C30.312883,12.121421 21.648060,12.142299 12.519852,12.203993 
	C13.743960,11.828560 15.432838,11.052246 17.118702,11.058739 
	C24.205318,11.086030 31.291035,11.347313 38.677391,11.811741 
z"/>
<path fill="#ED1119" opacity="1.000000" stroke="none" 
	d="
M256.812561,46.840202 
	C256.835541,42.804176 257.403198,38.821396 258.306030,34.438301 
	C258.641205,34.037987 259.095428,34.058422 259.095428,34.058422 
	C259.095428,34.058422 259.549316,34.031574 259.549316,34.031574 
	C259.606720,38.068432 259.664093,42.105289 259.632050,46.581200 
	C258.814178,46.977985 258.085693,46.935719 256.812561,46.840202 
z"/>
<path fill="#EC0000" opacity="1.000000" stroke="none" 
	d="
M85.798538,11.889467 
	C77.720047,12.166643 69.325127,12.152635 60.467094,12.063278 
	C68.496696,11.858049 76.989410,11.728167 85.798538,11.889467 
z"/>
<path fill="#EC0001" opacity="1.000000" stroke="none" 
	d="
M217.352371,131.970901 
	C225.387100,131.711441 233.701080,131.763840 242.469360,131.714554 
	C241.916931,132.072357 240.903809,132.941559 239.904465,132.926010 
	C232.478653,132.810318 225.055557,132.518967 217.352371,131.970901 
z"/>
<path fill="#EC0002" opacity="1.000000" stroke="none" 
	d="
M169.682388,11.733072 
	C162.969772,12.048341 155.939209,12.095595 148.439087,12.108192 
	C155.101181,11.870709 162.232803,11.667884 169.682388,11.733072 
z"/>
<path fill="#ED0D16" opacity="1.000000" stroke="none" 
	d="
M86.645401,110.945473 
	C86.570915,107.239609 86.496429,103.533745 86.540283,99.394287 
	C87.295563,98.993828 87.932510,99.026962 89.046608,99.093513 
	C89.025955,102.791504 88.528152,106.456070 87.733871,110.540894 
	C87.174141,110.918045 86.910149,110.912827 86.645401,110.945473 
z"/>
<path fill="#EC020A" opacity="1.000000" stroke="none" 
	d="
M146.655319,97.988098 
	C147.034485,101.557259 147.034485,105.120804 147.034485,108.684341 
	C146.730133,108.721619 146.425797,108.758888 146.121445,108.796165 
	C145.653214,105.507469 145.184967,102.218773 144.739304,98.498550 
	C145.266632,98.038841 145.771393,98.010666 146.655319,97.988098 
z"/>
<path fill="#EC030B" opacity="1.000000" stroke="none" 
	d="
M34.302280,92.021011 
	C33.935997,88.620720 33.935997,85.229858 33.935997,81.838997 
	C34.174660,81.795647 34.413322,81.752289 34.651985,81.708939 
	C35.163433,84.845901 35.674877,87.982857 36.159386,91.541245 
	C35.644482,91.985260 35.156525,92.007851 34.302280,92.021011 
z"/>
<path fill="#ED121B" opacity="1.000000" stroke="none" 
	d="
M281.638184,36.069611 
	C281.708984,35.545235 282.068756,34.867630 282.706635,34.258759 
	C282.632233,34.857117 282.279694,35.386745 281.638184,36.069611 
z"/>
<path fill="#EC0002" opacity="1.000000" stroke="none" 
	d="
M173.798309,12.007113 
	C173.506699,12.229956 173.063995,12.245662 172.303787,12.155109 
	C172.539917,11.965893 173.093567,11.882935 173.798309,12.007113 
z"/>
<path fill="#EC030B" opacity="1.000000" stroke="none" 
	d="
M34.028732,130.912903 
	C33.868248,130.852997 33.833027,130.677460 33.868607,130.242889 
	C34.071087,130.160843 34.221531,130.328156 34.321548,130.521530 
	C34.347271,130.571274 34.214146,130.703140 34.028732,130.912903 
z"/>
<path fill="#EE2F36" opacity="1.000000" stroke="none" 
	d="
M281.915649,109.729843 
	C281.717285,109.777283 281.433258,109.648117 281.212158,109.262970 
	C281.506317,109.142067 281.691254,109.324150 281.915649,109.729843 
z"/>
<path fill="#EE2F36" opacity="1.000000" stroke="none" 
	d="
M281.479919,84.021164 
	C281.487854,83.841240 281.698730,83.658951 281.997253,83.719337 
	C282.084900,83.962013 281.682892,84.018791 281.479919,84.021164 
z"/>
<path fill="#EC020A" opacity="1.000000" stroke="none" 
	d="
M147.011597,13.071806 
	C147.165146,13.134533 147.190964,13.314425 147.142487,13.756599 
	C146.941437,13.834897 146.795471,13.659984 146.701309,13.460613 
	C146.677429,13.410075 146.818558,13.281622 147.011597,13.071806 
z"/>
<path fill="#ED1E25" opacity="1.000000" stroke="none" 
	d="
M168.978210,47.024689 
	C168.978210,44.368122 168.788391,42.184666 169.033218,40.051090 
	C169.264160,38.038635 169.952606,36.078682 170.439804,34.095634 
	C172.335220,34.689728 174.558243,34.839031 176.070694,35.953053 
	C183.584320,41.487350 184.244843,49.566723 182.770065,57.722351 
	C181.252853,66.112617 176.834503,70.814529 170.463089,71.919373 
	C170.156891,71.972473 169.816589,71.828964 168.978210,71.694702 
	C168.978210,63.693729 168.978210,55.606659 168.978210,47.024689 
z"/>
<path fill="#ED2229" opacity="1.000000" stroke="none" 
	d="
M115.930176,59.971264 
	C116.405457,58.017849 116.857918,56.474792 117.310379,54.931740 
	C117.721962,54.985428 118.133545,55.039120 118.545128,55.092808 
	C119.706848,64.712021 120.870323,74.331017 122.027977,83.950729 
	C122.166832,85.104614 122.229248,86.269096 122.403252,87.417122 
	C123.452988,94.342941 123.343506,94.293564 116.407738,94.368637 
	C112.598091,94.409882 111.333328,93.083588 111.891365,89.339958 
	C113.328056,79.701797 114.580994,70.036232 115.930176,59.971264 
z"/>
<path fill="#ED1F26" opacity="1.000000" stroke="none" 
	d="
M259.660645,33.652214 
	C259.549316,34.031574 259.095428,34.058422 259.095428,34.058422 
	C259.095428,34.058422 258.641205,34.037987 258.414185,34.026100 
	C258.309113,32.248802 258.431091,30.483391 258.553040,28.717983 
	C258.959351,28.740049 259.365662,28.762115 259.771973,28.784182 
	C259.771973,30.280407 259.771973,31.776632 259.660645,33.652214 
z"/>
<path fill="#ED1F26" opacity="1.000000" stroke="none" 
	d="
M86.501656,111.321609 
	C86.910149,110.912827 87.174141,110.918045 87.635544,110.972519 
	C87.473747,112.841614 87.113792,114.699333 86.753845,116.557045 
	C86.621864,116.545464 86.489891,116.533882 86.357910,116.522301 
	C86.357910,114.914108 86.357910,113.305923 86.501656,111.321609 
z"/>
</svg>